<svg width="80" height="80" viewBox="0 0 80 80" fill="none" xmlns="http://www.w3.org/2000/svg">
<rect width="80" height="80" rx="20" fill="#41C977"/>
<path d="M40.6475 22.6094L56.3975 29.1751C57.01 29.4304 57.5 30.1964 57.5 30.8712V36.9262C57.5 37.9293 56.7125 38.75 55.75 38.75H24.25C23.2875 38.75 22.5 37.9293 22.5 36.9262V30.8712C22.5 30.1964 22.99 29.4304 23.6025 29.1751L39.3525 22.6094C39.7025 22.4635 40.2975 22.4635 40.6475 22.6094Z" stroke="white" stroke-width="3" stroke-linecap="round" stroke-linejoin="round"/>
<path d="M57.5 57.5H22.5V51.875C22.5 50.8437 23.2875 50 24.25 50H55.75C56.7125 50 57.5 50.8437 57.5 51.875V57.5Z" stroke="white" stroke-width="3" stroke-linecap="round" stroke-linejoin="round"/>
<path d="M26.25 50V38.75" stroke="white" stroke-width="3" stroke-linecap="round" stroke-linejoin="round"/>
<path d="M33.75 50V38.75" stroke="white" stroke-width="3" stroke-linecap="round" stroke-linejoin="round"/>
<path d="M40 50V38.75" stroke="white" stroke-width="3" stroke-linecap="round" stroke-linejoin="round"/>
<path d="M46.25 50V38.75" stroke="white" stroke-width="3" stroke-linecap="round" stroke-linejoin="round"/>
<path d="M53.75 50V38.75" stroke="white" stroke-width="3" stroke-linecap="round" stroke-linejoin="round"/>
<path d="M21.25 57.5H58.75" stroke="white" stroke-width="3" stroke-linecap="round" stroke-linejoin="round"/>
<path d="M40 33.75C41.3807 33.75 42.5 32.6307 42.5 31.25C42.5 29.8693 41.3807 28.75 40 28.75C38.6193 28.75 37.5 29.8693 37.5 31.25C37.5 32.6307 38.6193 33.75 40 33.75Z" stroke="white" stroke-width="3" stroke-linecap="round" stroke-linejoin="round"/>
</svg>
