<svg width="179" height="187" viewBox="0 0 179 187" fill="none" xmlns="http://www.w3.org/2000/svg">
<path d="M23.9297 187C9.99353 187 3.02544 187 0.812585 182.584C-1.40027 178.168 2.77076 172.586 11.1128 161.423L126.937 6.42256C129.292 3.27117 130.469 1.69547 132.161 0.847737C133.853 2.07836e-06 135.82 1.98781e-06 139.754 1.80671e-06L163 7.36565e-07C170.542 3.89345e-07 174.314 2.15735e-07 176.657 2.34315C179 4.68629 179 8.45753 179 16L179 171C179 178.542 179 182.314 176.657 184.657C174.314 187 170.542 187 163 187L23.9297 187Z" fill="url(#paint0_linear_4156_25099)" fill-opacity="0.12"/>
<defs>
<linearGradient id="paint0_linear_4156_25099" x1="179" y1="3.07905e-05" x2="179" y2="153.756" gradientUnits="userSpaceOnUse">
<stop stop-color="#41C977"/>
<stop offset="1" stop-color="#41C977" stop-opacity="0"/>
</linearGradient>
</defs>
</svg>
