<svg width="148" height="152" viewBox="0 0 148 152" fill="none" xmlns="http://www.w3.org/2000/svg">
<path d="M123.566 152C137.693 152 144.757 152 146.957 147.539C149.158 143.078 144.859 137.473 136.262 126.263L44.2318 6.2631C41.8738 3.18833 40.6947 1.65095 39.0214 0.825476C37.348 1.67524e-06 35.4106 1.58834e-06 31.5357 1.41453e-06L16 7.17678e-07C8.45753 3.79361e-07 4.68631 2.10203e-07 2.34315 2.34315C1.52588e-05 4.68629 1.52588e-05 8.45753 1.52588e-05 16L0 136C0 143.542 0 147.314 2.34314 149.657C4.68629 152 8.45753 152 16 152L123.566 152Z" fill="url(#paint0_linear_4930_5048)" fill-opacity="0.12"/>
<defs>
<linearGradient id="paint0_linear_4930_5048" x1="2.84441e-05" y1="2.50275e-05" x2="2.15262e-05" y2="124.978" gradientUnits="userSpaceOnUse">
<stop stop-color="#7260E2"/>
<stop offset="1" stop-color="#7260E2" stop-opacity="0"/>
</linearGradient>
</defs>
</svg>
