<?xml version="1.0" encoding="UTF-8"?>
<svg id="Layer_2" data-name="Layer 2" xmlns="http://www.w3.org/2000/svg" viewBox="0 0 22.5 16.11">
  <defs>
    <style>
      .cls-1 {
        fill: #191442;
      }
    </style>
  </defs>
  <g id="Layer_1-2" data-name="Layer 1">
    <g>
      <path class="cls-1" d="M11.25,6.74c1.86,0,3.37-1.51,3.37-3.37s-1.51-3.37-3.37-3.37-3.37,1.51-3.37,3.37,1.51,3.37,3.37,3.37Zm-2.31-3.37c0-1.28,1.04-2.31,2.31-2.31s2.31,1.04,2.31,2.31-1.04,2.31-2.31,2.31-2.31-1.04-2.31-2.31Z"/>
      <path class="cls-1" d="M17.92,6.8c1.5,0,2.71-1.22,2.71-2.71s-1.22-2.71-2.71-2.71-2.71,1.22-2.71,2.71,1.22,2.71,2.71,2.71Zm-1.68-2.71c0-.93,.75-1.68,1.68-1.68s1.68,.75,1.68,1.68-.75,1.68-1.68,1.68-1.68-.75-1.68-1.68Z"/>
      <path class="cls-1" d="M21.21,8.29c-1.2-1.29-2.84-1.39-3.37-1.39-.44,0-1.94,.1-3.1,1.25-1.41-1.05-2.99-1.15-3.51-1.15h-.09c-.5,0-2.04,.1-3.41,1.12-1.16-1.13-2.64-1.23-3.13-1.23-.47,0-2.11,.1-3.31,1.39C.31,9.35-.12,10.89,.03,12.88c.02,.34,.26,.62,.6,.71,.35,.08,2.18,.5,4,.5,.26,0,.52-.02,.77-.03,0,.21,0,.43,.02,.65,.02,.34,.27,.63,.6,.72,.27,.07,2.66,.67,5.15,.67,2.62,0,5.25-.66,5.28-.67,.34-.08,.58-.38,.61-.72,.02-.22,.02-.43,.02-.64,.25,.02,.51,.03,.77,.03,1.96,0,3.93-.49,4.01-.51,.33-.08,.57-.37,.59-.71,.14-1.99-.28-3.54-1.27-4.59Zm-4.13,4.68c-.03-.38-.08-.74-.14-1.09-.01-.08-.03-.15-.05-.23-.07-.31-.15-.61-.25-.89-.01-.04-.03-.09-.04-.13-.12-.31-.26-.6-.42-.87-.04-.06-.07-.12-.11-.18-.15-.24-.32-.47-.5-.68-.02-.02-.03-.05-.05-.07,.87-.84,2-.91,2.39-.91,.37,0,1.63,.08,2.55,1.06,.75,.81,1.09,2.03,1,3.63-.61,.14-2.66,.52-4.37,.41,0-.02,0-.04,0-.06Zm-1.05,1.48c-.62,.14-2.77,.6-4.85,.6s-4.11-.45-4.71-.59c-.03-.49-.02-.95,.01-1.39,.01-.19,.04-.36,.06-.54,.03-.23,.07-.45,.11-.66,.05-.22,.11-.43,.17-.63,.04-.12,.09-.24,.14-.36,.23-.54,.52-1.02,.89-1.41,.12-.13,.25-.24,.38-.35l.18-.14v-.02c1.09-.81,2.33-.89,2.77-.89h.04c.49,0,2.18,.11,3.43,1.41,.05,.05,.08,.11,.13,.17,.18,.21,.35,.44,.49,.69,.06,.11,.11,.23,.17,.35,.1,.22,.19,.44,.27,.68,.04,.14,.08,.29,.12,.43,.06,.26,.1,.53,.14,.81,.02,.15,.04,.3,.05,.45,.03,.44,.04,.9,.01,1.39Zm-10.45-2.65c-.07,.38-.13,.77-.16,1.19,0,.01,0,.03,0,.04-.27,.02-.53,.03-.78,.03-1.51,0-3.07-.32-3.58-.44-.08-1.6,.25-2.82,1-3.63,.92-.99,2.18-1.06,2.55-1.06h.06c.34,0,1.44,.07,2.31,.89-.69,.78-1.16,1.77-1.39,2.95,0,0,0,.02,0,.03Zm15.45-3.33h0s0,0,0,0Z"/>
      <path class="cls-1" d="M4.58,6.8c1.5,0,2.71-1.22,2.71-2.71s-1.22-2.71-2.71-2.71S1.87,2.59,1.87,4.08s1.22,2.71,2.71,2.71Zm-1.68-2.71c0-.93,.75-1.68,1.68-1.68s1.68,.75,1.68,1.68-.75,1.68-1.68,1.68-1.68-.75-1.68-1.68Z"/>
    </g>
  </g>
</svg>