<svg width="146" height="146" viewBox="0 0 146 146" fill="none" xmlns="http://www.w3.org/2000/svg">
<path d="M23.5 1H14.5C8.13604 1 4.95406 1 2.97703 2.97703C1 4.95406 1 8.13604 1 14.5V23.5M122.5 1H131.5C137.864 1 141.046 1 143.023 2.97703C145 4.95406 145 8.13604 145 14.5V23.5M23.5 145H14.5C8.13604 145 4.95406 145 2.97703 143.023C1 141.046 1 137.864 1 131.5V122.5M122.5 145H131.5C137.864 145 141.046 145 143.023 143.023C145 141.046 145 137.864 145 131.5V122.5" stroke="#E2DEFF" stroke-width="1.125" stroke-linecap="round"/>
</svg>
