<?xml version="1.0" encoding="UTF-8"?>
<svg id="Layer_2" data-name="Layer 2" xmlns="http://www.w3.org/2000/svg" viewBox="0 0 168.09 34.93">
  <defs>
    <style>
      .cls-1 {
        fill: #fff;
        fill-rule: evenodd;
      }
    </style>
  </defs>
  <g id="Layer_1-2" data-name="Layer 1">
    <path class="cls-1" d="M83.25,0V5.43h5.55V0h-5.55ZM7.14,7.76H0l11.1,26.39h5.55L26.96,7.76h-6.34l-7.14,17.08L7.14,7.76Zm45.99,15.52H31.72c0,4.66,3.96,6.21,7.93,6.21,3.17,0,5.02-1.55,5.55-2.33h6.34c-3.17,5.59-9.25,6.99-11.89,6.99-10.15,0-13.22-7.24-13.48-10.87v-4.66c.26-3.62,3.33-10.87,13.48-10.87s13.21,7.24,13.48,10.87v4.66Zm2.38-15.52v26.39h6.34v-15.52c0-2.07,1.27-6.21,6.34-6.21s6.34,4.14,6.34,6.21v15.52h5.55v-15.52c.26-3.62-1.74-10.87-11.89-10.87-1.59,0-5.07,.62-6.34,3.1v-3.1h-6.34Zm27.75,19.4V7.76h13.48v5.43h-7.93v13.97c0,1.24,1.06,1.55,1.59,1.55h6.34v5.43h-6.34c-5.71,0-7.14-4.66-7.14-6.99ZM104.66,7.76h-5.55V24.06c0,.78,.79,10.87,11.89,10.87,8.88,0,11.63-7.24,11.89-10.87V7.76h-5.55V24.06c0,1.55-1.27,5.43-6.34,5.43s-6.34-3.62-6.34-5.43V7.76Zm21.41,0v26.39h5.55V13.97h9.51V7.76h-5.55l-3.96,3.88v-3.88h-5.55Zm27.75,0c-10.78,0-13.48,8.8-13.48,13.2,0,9.31,7.14,13.2,13.48,13.2,5.07,0,8.46-2.33,9.51-3.88v3.88h4.76V7.76h-4.76v3.88c-3.17-3.1-7.66-3.88-9.51-3.88ZM47.57,18.63h-15.86c0-2.07,1.59-6.21,7.93-6.21s7.93,4.14,7.93,6.21Zm115.76,2.33c0-2.85-2.38-8.54-8.72-8.54-7.93,0-8.72,6.99-8.72,8.54s0,8.54,8.72,8.54c6.98,0,8.72-5.69,8.72-8.54Z"/>
  </g>
</svg>